<svg width="414" height="414" viewBox="0 0 414 414" fill="none" xmlns="http://www.w3.org/2000/svg">
<g clip-path="url(#clip0_27_68)">
<path d="M414 259.951C413.976 262.77 413.117 265.519 411.533 267.852C409.949 270.184 407.709 271.995 405.097 273.058C402.485 274.12 399.618 274.385 396.855 273.82C394.093 273.255 391.559 271.885 389.574 269.882C387.589 267.88 386.241 265.335 385.7 262.568C385.159 259.8 385.449 256.935 386.534 254.332C387.618 251.73 389.449 249.506 391.795 247.942C394.141 246.378 396.897 245.544 399.717 245.543C401.627 245.454 403.535 245.766 405.317 246.46C407.099 247.153 408.715 248.214 410.061 249.572C411.408 250.93 412.454 252.555 413.132 254.343C413.811 256.131 414.106 258.041 414 259.951ZM399.717 271.418C402.008 271.543 404.283 270.977 406.248 269.795C408.214 268.613 409.78 266.868 410.744 264.787C411.708 262.705 412.026 260.382 411.656 258.118C411.286 255.855 410.246 253.754 408.669 252.087C407.093 250.421 405.053 249.265 402.814 248.77C400.574 248.275 398.237 248.463 396.105 249.309C393.973 250.156 392.144 251.623 390.855 253.52C389.565 255.417 388.874 257.657 388.87 259.951C388.741 261.436 388.928 262.933 389.419 264.341C389.909 265.749 390.693 267.037 391.718 268.121C392.743 269.204 393.985 270.058 395.364 270.627C396.743 271.195 398.226 271.465 399.717 271.418ZM403.195 261.979C408.535 260.779 407.335 252.623 400.959 252.623H393.962V267.278H397.813V262.724H399.179L402.656 267.278H406.796V266.45L403.195 261.979ZM400.959 256.1C401.201 256.062 401.449 256.077 401.685 256.144C401.921 256.21 402.14 256.327 402.326 256.487C402.513 256.646 402.662 256.844 402.765 257.067C402.868 257.29 402.921 257.532 402.921 257.777C402.921 258.022 402.868 258.265 402.765 258.487C402.662 258.71 402.513 258.908 402.326 259.067C402.14 259.227 401.921 259.344 401.685 259.411C401.449 259.477 401.201 259.492 400.959 259.454H397.813V256.1H400.959Z" fill="#FFB865"/>
<path d="M81.8064 239.789H65.826V166.594H81.8064C102.796 166.594 114.926 179.966 114.926 203.315C114.926 226.665 102.92 239.789 81.8064 239.789ZM306.36 174.253V170.113C303.7 170.902 301.11 171.913 298.618 173.135C301.224 173.165 303.819 173.47 306.36 174.046V174.253ZM131.528 238.34L127.098 244.55L128.671 226.996C130.155 215.273 135.938 204.518 144.9 196.816C143.658 196.816 142.333 197.147 140.76 197.437L125.028 200.707L136.62 189.322C140.862 185.586 145.599 182.451 150.696 180.007L152.393 179.096C146.832 162.52 135.024 148.767 119.48 140.76C108.656 135.19 96.6703 132.254 84.4974 132.19H55.89C33.2442 132.19 22.5216 131.9 14.49 130.079C9.96605 128.777 5.66645 126.795 1.7388 124.2L0 123.206V125.276C0 125.939 1.6146 141.257 19.9548 154.67C23.5152 157.196 25.9992 159.721 25.9992 168.746V250.884C25.9992 259.661 24.2604 262.103 20.1618 264.587C16.0632 267.071 6.6654 272.578 6.6654 272.578L3.4776 274.441H77.9976C98.6976 274.441 111.863 270.922 125.98 261.482C127.916 260.204 129.782 258.822 131.569 257.342C130.639 251.098 130.639 244.75 131.569 238.505L131.528 238.34ZM274.068 240.493C274.507 239.828 274.781 239.068 274.867 238.276C274.954 237.484 274.85 236.683 274.565 235.939L269.928 223.146L281.52 230.018C282.618 230.684 283.645 231.46 284.584 232.337L291.539 231.84C296.597 231.364 301.696 232.058 306.443 233.869V197.851C304.468 198.448 302.607 199.372 300.937 200.583L297.997 203.233L294.809 200.831C292.372 199.173 289.477 198.318 286.529 198.389C283.896 198.387 281.291 198.934 278.882 199.996C276.472 201.059 274.311 202.612 272.536 204.557C270.466 206.959 268.396 209.443 266.864 211.885V240.41C269.68 242.563 272.619 242.521 274.151 240.41L274.068 240.493ZM360.18 140.76C349.356 135.19 337.37 132.254 325.197 132.19H296.465C273.82 132.19 263.097 131.9 255.065 130.079C250.541 128.777 246.242 126.795 242.314 124.2L240.575 123.041V125.111C240.575 125.773 242.19 141.091 260.53 154.505C264.091 157.03 266.575 159.556 266.575 168.581V174.501C270.714 171.975 275.08 169.84 279.616 168.125C277.673 169.876 275.911 171.818 274.358 173.921C278.51 171.274 283.184 169.552 288.061 168.871C294.086 167.795 300.253 167.795 306.277 168.871V166.635H322.258C343.206 166.635 355.378 180.007 355.378 203.357C355.378 226.706 343.33 239.83 322.258 239.83H316.172C318.957 242.301 321.196 245.326 322.743 248.713C324.29 252.099 325.112 255.772 325.156 259.495C325.122 264.864 323.415 270.089 320.27 274.441C340.184 274.441 352.894 270.715 366.638 261.524C372.423 257.693 377.577 252.986 381.915 247.572C391.727 234.748 396.959 219.006 396.778 202.86C397.021 190.136 393.729 177.594 387.268 166.63C380.806 155.667 371.429 146.711 360.18 140.76Z" fill="#FFB865"/>
<path d="M155.457 149.247C154.802 144.107 155.327 138.886 156.991 133.98C158.656 129.073 161.416 124.61 165.062 120.929C169.294 116.657 174.439 113.398 180.11 111.397C185.782 109.397 191.833 108.707 197.809 109.379C221.573 110.662 232.958 126.932 232.958 144.486C232.313 154.568 228.729 164.239 222.649 172.307L221.614 171.23C220.455 170.071 219.089 168.871 217.474 167.587C213.263 164.055 209.484 160.04 206.213 155.623C212.713 143.782 208.987 127.015 195.242 127.015C193.157 127.139 191.119 127.692 189.256 128.639C187.394 129.586 185.747 130.907 184.418 132.52C183.089 134.132 182.107 136.001 181.534 138.01C180.96 140.019 180.807 142.125 181.084 144.196C178.916 149.678 178.051 155.588 178.558 161.46C174.764 159.464 171.682 156.34 169.74 152.518L164.689 140.429L160.549 152.849C159.609 155.931 159.369 159.184 159.845 162.371C157.298 158.415 155.763 153.894 155.374 149.206L155.457 149.247ZM139.849 192.758C146.639 185.969 160.549 181.746 161.419 178.061C162.288 174.377 155.167 168.25 152.476 167.09C157.45 166.695 162.454 167.185 167.256 168.539C165.946 166.445 165.095 164.096 164.76 161.648C164.424 159.2 164.612 156.709 165.31 154.339C170.692 167.256 189.902 169.326 194.663 180.007C193.919 177.308 192.642 174.785 190.907 172.588C189.172 170.391 187.014 168.564 184.561 167.215C181.829 160.177 183.857 147.26 187.211 143.658C186.01 162.288 212.589 172.928 218.095 186.424C214.825 174.832 202.487 167.504 196.609 160.591C195.821 158.102 195.561 155.476 195.846 152.881C196.131 150.286 196.955 147.779 198.265 145.521C197.644 157.941 211.099 167.711 218.261 174.501C226.748 182.781 229.149 189.943 227.99 195.863C229.225 196.086 230.334 196.76 231.099 197.755C231.865 198.75 232.232 199.994 232.13 201.245C233.482 200.775 234.723 200.033 235.777 199.065C236.83 198.096 237.675 196.922 238.257 195.615C238.833 199.863 238.18 204.187 236.375 208.076C234.57 211.965 231.689 215.255 228.073 217.557C228.515 216.255 228.641 214.865 228.439 213.505C228.238 212.144 227.715 210.851 226.913 209.732C224.181 206.42 216.398 206.379 213.79 206.586C213.79 206.586 216.977 201.784 215.735 199.382C214.121 196.36 198.927 197.685 192.096 200.169C195.381 200.018 198.668 200.409 201.825 201.328C200.749 202.901 197.975 209.608 199.962 211.637C201.949 213.665 204.102 210.271 204.102 210.271C204.102 210.271 201.742 217.598 203.44 219.296C205.137 220.993 208.78 219.793 208.78 219.793C206.503 225.547 197.685 229.48 191.475 229.48C194.422 228.044 196.715 225.544 197.892 222.484C195.518 223.388 192.973 223.755 190.44 223.56C192.29 222.275 193.726 220.478 194.571 218.39C195.417 216.302 195.636 214.013 195.201 211.802C193.338 203.522 181.58 202.28 175.66 206.379C177.878 200.704 182.233 196.126 187.79 193.628C184.86 192.635 181.856 191.874 178.807 191.351C184.216 188.008 190.457 186.257 196.816 186.3C189.446 184.396 176.116 186.755 169.823 194.042C172.863 194.264 175.872 194.791 178.807 195.615C170.066 198.011 162.047 202.517 155.457 208.739C156.326 203.854 157.693 199.714 156.575 196.774C154.919 192.634 149.868 190.895 140.015 192.965L139.849 192.758ZM216.563 193.876C215.821 191.824 214.646 189.955 213.117 188.398C211.588 186.841 209.742 185.631 207.704 184.851C209.07 189.571 210.85 193.876 216.563 193.876ZM320.353 259.454C320.353 245.792 307.105 235.193 291.994 236.601C294.753 237.182 297.245 238.65 299.092 240.781C300.938 242.911 302.037 245.587 302.22 248.4C302.22 259.081 288.889 262.393 281.52 260.82C289.345 255.397 288.31 239.789 278.912 234.241C282.1 242.977 272.536 251.671 263.263 244.053C258.088 239.913 246.164 229.853 240.824 225.547C235.483 221.242 229.232 223.767 226.789 221.904C224.347 220.041 225.796 213.624 221.945 211.554C218.758 209.691 215.57 210.726 211.844 209.484C210.209 209.13 208.757 208.198 207.753 206.86C206.749 205.521 206.261 203.866 206.379 202.198C205.57 203.776 205.237 205.555 205.421 207.319C205.605 209.083 206.297 210.756 207.414 212.134C209.981 215.073 214.204 216.895 215.984 220.124C218.261 224.264 214.411 230.143 224.512 238.091C229.356 241.859 236.932 248.069 241.735 252.374C250.015 259.619 245.585 268.603 246.661 276.469C247.192 280.093 248.755 283.488 251.163 286.248C253.571 289.009 256.722 291.018 260.24 292.036C257.76 289.395 256.38 285.909 256.38 282.286C256.38 278.663 257.76 275.177 260.24 272.536C260.589 277.814 262.551 282.856 265.861 286.981C269.171 291.106 273.669 294.113 278.746 295.596C292.16 299.156 306.443 291.456 309.424 286.198C306.162 287.068 302.739 287.146 299.441 286.426C296.143 285.706 293.065 284.208 290.462 282.058C306.194 284.294 320.146 273.323 320.146 259.33L320.353 259.454ZM238.505 255.769C234.365 252.085 228.031 246.868 223.312 243.101C217.93 252.292 206.462 264.298 194.87 264.298C173.507 264.298 162.785 234.076 186.59 209.318C185.544 208.994 184.456 208.827 183.361 208.822C181.464 208.774 179.595 209.278 177.979 210.271L168.912 216.895L171.065 204.93C171.263 204.223 171.512 203.531 171.81 202.86C167.118 205.106 162.802 208.067 159.017 211.637L149.744 221.78L150.737 207.497L151.358 204.309C151.944 202.308 152.196 200.224 152.104 198.14C151.949 197.827 151.704 197.567 151.4 197.395C147.011 200.79 134.84 211.513 133.474 227.286C134.541 225.626 135.953 224.214 137.614 223.146C138.98 222.649 140.139 223.146 138.856 227.286C138.359 228.818 126.684 260.406 149.661 282.307C149.661 282.307 147.136 275.89 148.667 274.027C149.413 273.074 150.365 272.992 151.69 274.689C153.014 276.386 153.718 277.256 154.836 278.498C156.857 280.708 159.074 282.731 161.46 284.542C169.311 290.099 178.669 293.132 188.287 293.236C216.729 293.236 231.757 273.613 240.12 257.177C239.747 256.763 239.333 256.307 238.878 255.893L238.505 255.769ZM287.647 187.335C266.492 188.37 248.234 206.379 238.919 219.089C240.747 219.664 242.458 220.562 243.97 221.738L251.919 228.238C256.262 218.547 261.948 209.516 268.81 201.411C272.317 197.334 277.17 194.65 282.487 193.844C287.804 193.039 293.233 194.167 297.79 197.023C302.468 192.883 318.49 188.743 326.77 191.268C319.486 183.379 309.421 178.629 298.701 178.02C288.724 178.02 283.093 182.905 281.644 180.711C280.195 178.517 288.392 173.88 288.392 173.88C276.635 174.377 268.065 188.246 264.505 186.3C262.393 185.265 267.692 178.6 267.692 178.6C257.477 184.981 249.817 194.735 246.04 206.172C255.935 194.042 275.02 185.472 287.647 187.169V187.335ZM291.208 240.989C292.912 241.396 294.443 242.332 295.581 243.664C296.719 244.995 297.406 246.654 297.542 248.4C297.543 249.559 297.233 250.698 296.643 251.696C296.053 252.694 295.205 253.514 294.188 254.072C293.117 254.724 291.961 255.226 290.752 255.562C291.429 253.237 291.736 250.82 291.663 248.4C291.663 243.887 291.208 241.403 291.208 241.403" fill="#FFB865"/>
</g>
<defs>
<clipPath id="clip0_27_68">
<rect width="414" height="414" fill="white"/>
</clipPath>
</defs>
</svg>
